<?xml version="1.0" encoding="utf-8"?>
<!-- Generator: Adobe Illustrator 18.1.1, SVG Export Plug-In . SVG Version: 6.00 Build 0)  -->
<!DOCTYPE svg PUBLIC "-//W3C//DTD SVG 1.1//EN" "http://www.w3.org/Graphics/SVG/1.1/DTD/svg11.dtd">
<svg version="1.1" id="Layer_1" xmlns="http://www.w3.org/2000/svg" xmlns:xlink="http://www.w3.org/1999/xlink" x="0px" y="0px"
	 width="500px" height="500px" viewBox="0 0 500 500" enable-background="new 0 0 500 500" xml:space="preserve">
<g>
	<path fill="#488B17" d="M250,497.6L250,497.6C112.9,497.6,1.5,386.1,1.5,249.1C1.5,112.3,112.5,0.9,249.2,0.5l0.3,0l0.8,0
		c136.9,0.2,248.3,111.6,248.3,248.6C498.5,386.1,387.1,497.6,250,497.6L250,497.6z M249.7,20C123.5,20.1,20.9,122.9,20.9,249.1
		c0,126.3,102.7,229.1,229,229.1h1.1c125.8-0.6,228-103.2,228-229.1C479.1,122.8,376.3,20,250,20L249.7,20z"/>
</g>
<g>
	<g>
		<path fill="#488B17" d="M336.4,349H216.9c-4.6,0-8.7-3.1-10.1-7.4l-54.1-173.5h-36.9V149H159c4.6,0,8.7,3.1,10.1,7.4L223.2,330
			h113.2V349z"/>
	</g>
	<g>
		<path fill="#488B17" d="M349,311.2h-147v-19.1h140.7l19.5-66.5H176.7v-19.1h197.4c3.2,0,6.2,1.5,8.1,4c1.9,2.5,2.5,5.9,1.6,8.9
			l-24.7,84.1C357.8,308.1,353.6,311.2,349,311.2z"/>
	</g>
	<g>
		
			<rect x="182.5" y="249.4" transform="matrix(0.1213 0.9926 -0.9926 0.1213 455.212 3.5707)" fill="#488B17" width="86.2" height="19.1"/>
	</g>
	<g>
		
			<rect x="309.5" y="215.8" transform="matrix(0.9926 0.1213 -0.1213 0.9926 33.7616 -36.7931)" fill="#488B17" width="19.1" height="86.2"/>
	</g>
	<g>
		<rect x="262.2" y="216.1" fill="#488B17" width="19.1" height="85.6"/>
	</g>
	<g>
		<path fill="#488B17" d="M221.6,391.1c-16.3,0-29.5-13.2-29.5-29.5c0-16.3,13.2-29.5,29.5-29.5s29.5,13.2,29.5,29.5
			C251.1,377.9,237.9,391.1,221.6,391.1z M221.6,351.2c-5.7,0-10.4,4.7-10.4,10.4c0,5.7,4.7,10.4,10.4,10.4
			c5.7,0,10.4-4.7,10.4-10.4C232,355.9,227.4,351.2,221.6,351.2z"/>
	</g>
	<g>
		<path fill="#488B17" d="M333.8,388.9c-16.3,0-29.5-13.2-29.5-29.5c0-16.3,13.2-29.5,29.5-29.5s29.5,13.2,29.5,29.5
			C363.2,375.7,350,388.9,333.8,388.9z M333.8,349c-5.7,0-10.4,4.7-10.4,10.4c0,5.7,4.7,10.4,10.4,10.4c5.7,0,10.4-4.7,10.4-10.4
			C344.2,353.7,339.5,349,333.8,349z"/>
	</g>
	<g>
		<rect x="189.3" y="249.4" fill="#488B17" width="172.8" height="19.1"/>
	</g>
</g>
</svg>
